<svg xmlns="http://www.w3.org/2000/svg" viewBox="0 0 158.581 37.131">
  <path fill="#eb1947" fill-rule="evenodd" clip-rule="evenodd" d="M29.76 0c.455.126.907.264 1.366.377 7.394 1.828 10.59 10.465 6.123 16.65-.537.742-.543 1.176-.003 1.922 4.695 6.476.973 15.437-6.938 16.803-.27.046-.527.163-.79.247H0V9.6c.102-.335.22-.665.302-1.005C1.372 4.267 4.057 1.52 8.356.345 8.77.234 9.186.116 9.6 0h20.16zM7.166 28.752c.217.048.367.11.517.11 7.036.005 14.072.02 21.108-.022.636-.003 1.34-.283 1.89-.63 1.382-.865 1.937-2.563 1.47-4.1-.472-1.545-1.88-2.576-3.646-2.58-6.836-.015-13.672-.008-20.51 0-.265 0-.53.07-.83.114v7.108zm-.02-14.283h11.168c3.478-.002 6.955.03 10.432-.022 2.005-.03 3.544-1.67 3.56-3.637.014-1.92-1.47-3.645-3.39-3.663-6.155-.055-12.31-.045-18.465.002-1.64.01-3.125 1.367-3.278 2.97-.13 1.377-.027 2.776-.027 4.35z"/>
  <g fill-rule="evenodd" clip-rule="evenodd">
    <path fill="currentColor" d="M53.292 26.782c-.055.62-.094 1.086-.14 1.61h-3.896V8.835h3.892v6.838c.22.027.328.073.365.04 3.994-3.605 9.455-1.848 10.592 3.445.4 1.866.324 3.743-.418 5.535-1.96 4.73-7.63 5.047-9.96 2.372-.074-.082-.192-.126-.435-.282zm6.97-5.51c.018-2.715-2.098-4.618-4.415-3.977-1.875.52-2.99 2.577-2.596 4.79.357 1.998 1.912 3.338 3.705 3.193 1.936-.155 3.294-1.8 3.307-4.006zM122.08 8.822h4.006v19.532h-3.902c-.04-.53-.074-1.038-.12-1.645-.177.093-.335.127-.41.224-2.216 2.782-7.52 2.436-9.612-1.564-1.426-2.725-1.42-5.574.004-8.302 1.87-3.587 6.436-4.395 9.492-1.77.115.098.238.185.543.42V8.82zm.093 12.428c.01-2.323-1.465-4.044-3.48-4.064-2.03-.02-3.56 1.668-3.594 3.966-.032 2.342 1.51 4.138 3.556 4.14 2.004 0 3.508-1.728 3.517-4.042zM88.068 15.34c.02-.247.062-.713.11-1.237h3.894v14.26H88.18c-.046-.522-.093-1.09-.16-1.863-1.267 1.478-2.687 2.283-4.483 2.21-.555-.023-1.12-.087-1.654-.23-3.576-.963-5.513-4.79-4.678-9.2.682-3.606 3.62-5.948 7.13-5.43 1.264.187 2.446.957 3.733 1.49zm-7.006 5.93c.02 2.277 1.572 4.022 3.568 4.02 1.998-.002 3.527-1.75 3.537-4.04.01-2.346-1.56-4.11-3.62-4.064-2.008.043-3.508 1.8-3.485 4.085zM108.546 28.406h-4.006V25.57c0-1.68.014-3.358-.004-5.038-.023-2.068-.88-3.107-2.516-3.104-1.646.003-2.547 1.06-2.562 3.074-.02 2.592-.006 5.185-.006 7.866h-3.955V14.105h3.875c.045.52.09 1.022.146 1.686.3-.247.533-.416.74-.616 1.543-1.505 3.373-1.76 5.332-1.106 1.947.65 2.854 2.233 2.922 4.144.122 3.348.034 6.704.034 10.194zM135.853 14.13c.268-.055.383-.093.498-.1 3.65-.153 3.65-.153 4.81 3.294.693 2.066 1.383 4.135 2.314 6.214l1.23-3.83c.527-1.634 1.023-3.28 1.604-4.894.115-.322.535-.727.844-.752 1.105-.09 2.225-.035 3.53-.035-.16.492-.267.854-.397 1.205-1.678 4.49-3.357 8.978-5.037 13.465-.098.262-.203.52-.312.778-1.492 3.512-4.637 4.466-8.03 2.338l1.077-2.354c1.246-.165 2.402.017 3.023-.477.893-.71-.115-1.68-.408-2.47-1.38-3.705-2.846-7.377-4.277-11.062-.156-.4-.29-.814-.467-1.32zM133.43 28.39h-3.882V8.862h3.883V28.39zM75.426 17.865c-3.594.755-4.52 1.912-4.534 5.61-.005 1.595 0 3.19 0 4.882h-3.944V14.12h3.896v2.16c1.244-1.468 2.447-2.728 4.582-2.444v4.03z"/>
  </g>
</svg>
