<svg xmlns="http://www.w3.org/2000/svg" viewBox="0 0 640 377.5">
  <path class="path" stroke="#fff" stroke-width="10" stroke-linejoin="" stroke-linecap="" stroke-miterlimit="20" stroke-dasharray="1000" stroke-dashoffset="0" fill="none"  d="M384 140.5c-3.2 4-6 7.4-8.3 11.2-2.4 3.8-4.7 8-7 13.5-.8 1.5-1.7 3.8-3 6.6-.5 1.4-1 3-1.8 4.6l-2.2 5-2.2 5.7-4.5 12.2-4.2 13c-2.8 9-5.3 18.2-7 27.5l-.7 3.5c0 1.2-.2 2.4-.4 3.5l-.7 7c-.3 1-.3 2.3-.3 3.4 0 1.3 0 2.4-.2 3.6v3.4l.2 1.6v1.7c.5 4.5 1.5 8.8 3 12.8l.7 1.5.6 1.5 1.6 2.7 2 2.4c.5 1 1.3 1.5 2 2.2.6.7 1.4 1.2 2 1.8.5.3 1 .5 1.2.8l1.2.7 2.2 1.2 2.2.8 2 .7c.8 0 1.4.3 2 .5l3.5.5c2 0 3.6.3 4.6.2h1.7s2.3 0 6.2-.6c4-.5 9.5-1.7 16-4 12.7-4 28.8-12.2 44.6-22.4 8-5 15.8-10.7 23.2-16.4l10.5-8.8 5-4.5 2.3-2.3 2.2-2.2c2.8-3 5.3-6 7-9l.8-1.2.5-1.3.4-1c0-.5 0-.8.2-1l.8-3.2c.8-3.2 1-6.2.7-9-.3-3-1-5.8-2.8-8-1.7-2.4-4-4-6.5-4.7-2.4-.8-5-1-7.5-.3 2.5.7 4.5 1.8 6 3.2 1.5 1.3 2.4 2.8 3 4.5.4 1.6.6 3.4.5 5.5 0 2-.4 4.4-1 7l-.8 2.7-.2.8c0 .3-.2.6-.3.8l-.2.5-.5.8c-1.2 2-3.4 4.7-6 7.5l-2 2-2.2 2.2-4.8 4.3c-3.2 2.8-6.6 5.7-10.2 8.5-7 5.6-14.8 11-22.5 16-15.3 10-31 17.7-43 21.7-6 2-11 3-14.4 3.6-3.5.6-5.4.6-5.4.6h-5.4c-.7-.3-1.6-.4-2.6-.6-.4 0-1-.2-1.4-.4-.5 0-1-.2-1.6-.4l-1.5-.6-1.6-1c-.4 0-.7-.2-1-.3l-.7-.6-1.5-1.2-1.4-1.5-1.3-1.7-1-2-.5-1-.5-1.2c-1.2-3-2-6.5-2.4-10.4V265v-1.4c-.2-1-.2-2-.2-3v-3c0-1.2.2-2.2.3-3.3.2-2.2.3-4.3.7-6.5l.5-3.3c0-1 .3-2.2.5-3.3 1.6-9 4-18 6.8-26.6 1.4-4.4 2.7-8.6 4.3-12.7 1.4-4.3 3-8.3 4.3-12l2-5.6 2.2-5 1.8-4.6c1.2-2.8 2-5 2.8-6.5 2.3-5.5 4-10 5-14.2 1.3-4.2 2.2-8.4 3.2-13.5z"/>
  <path class="path" stroke="#fff" stroke-width="10" stroke-linejoin="" stroke-linecap="" stroke-miterlimit="20" stroke-dasharray="1000" stroke-dashoffset="0" fill="none"  d="M335 223c10-2.2 16.8-4 27.6-9.3l11-5.5c7.7-4 20.8-10.8 31.8-16.8s20-11.2 20-11.2l5-3c3-1.7 7.4-4.2 12.2-7.2 9.5-5.8 20.8-13.3 28.6-19.4 7.3-5.8 11.5-10.2 13.6-12.7 2-2.6 3.7-5.3 4.6-8.5.4-1.6.5-3.5 0-5.3-.6-1.8-1.8-3.3-3-4.3-1.3-1-2.6-1.5-3.8-2l-3.7-.3c-2.6 0-5 .2-7.5.8 2.5.6 4.7 1.4 6.6 2.4 2 .8 3.7 2 4.5 3 .3.7.4 1.2.4 1.6 0 .5-.3 1-.6 1.8-.6 1.5-2 3.5-3.7 5.5-1.7 2-5.3 6-12.4 11.4-7.4 5.8-18.5 13.2-27.8 19-4.7 3-9 5.4-12 7-3 2-5 3-5 3s-8.8 5-19.8 11-24 12.8-31.8 16.8l-11 5.5c-10.6 5.5-16 9.7-24 16.3zM340.5 118.5l12.8-5.4c2-.8 4-2 6.2-3s4.5-2.3 7-3.8c1.4-1 3.6-2 6.2-3.4l4.3-2.4c2.8-1.5 6-3 9-4.8 13.2-6.6 29-14 44.4-20.3 15.3-6.5 30.2-12.3 41.2-16.5l18-6.7s17-6 39-13.5c21.8-7.4 48.6-16 67.8-21.7 8.8-2.6 14.2-4.3 17-5C625 8 631 5 640 0c-10.3.3-17.3 1-28.8 4.2l-17 5c-19.3 6-46.2 14.4-68.2 22-22 7.3-39 13.6-39 13.6l-18.2 6.7c-11 4.2-26 10-41.5 16.5-15.4 6.6-31.4 14-44.7 20.6l-9.3 5c-1.6.7-3 1.6-4.4 2.3l-6.3 3.4c-2.6 1.6-5 3-7 4.5-2 1.3-3.8 2.8-5.5 4.3-3.5 3-6.4 6.3-9.7 10.2zM256 103.5c-.4.5-.5 1.2-.7 1.8 0 .6-.3 1.2-.4 1.8-.4 1.3-.6 2.4-.8 3.6l-1 6.7c-.3 4.5-.3 9.2 0 15.2l.8 12.2 2.7 40.3c1 14 1.6 25.7 1.6 25.7l1.2 22c.7 12.5 1.3 27.5 1.5 38.3.2 9 0 14.7 0 17.7 0 6 .3 10.5.6 15l.5 6.4.2 3.5c0 1.2 0 2.4-.7 3.5 1-.7 1.8-2 2.4-3 .5-1 1-2.2 1.3-3.3 1-2.2 1.5-4.4 2-6.6 1-4.4 1.5-9.2 1.6-15.3l-.2-18c-.2-10.7-.8-26-1.4-38.3l-1.3-22.2-1.4-25.7c-1-14-2-30.6-2.8-40.4l-.8-12c-.4-6-1-10.6-2-15l-1.5-6.6-.8-3.3-.5-1.7c0-.6-.3-1.2-.2-1.8z"/>
  <path class="path" stroke="#fff" stroke-width="10" stroke-linejoin="" stroke-linecap="" stroke-miterlimit="20" stroke-dasharray="1000" stroke-dashoffset="0" fill="none" d="M265 254c4 9.5 7 15.8 14.6 25.2l7.8 9.5 4 4.6 2.5 3 6 6.7c6.4 6.8 10.7 10.7 13 12.7 2.3 2 4.5 3.8 6.7 5.2 2.3 1.3 4.5 2.4 7 3.2 1.2.3 2.4.6 3.8.7 1.4 0 3-.2 4.3-1 1.4-.6 2.3-2 2.8-3 .4-1.4.4-2.7.4-4-.6 1.2-1.2 2.2-2 3-.7.7-1.5 1-2.3 1-1.5 0-3-1-4.7-2-3.2-2.3-6.5-5.3-11-9-2-2-6-5.8-12.2-12.4l-6-6.5-6.4-7.3c-4.4-5.2-6.4-7.8-7.7-9.4-7.5-9.2-12.7-13.7-20.6-20.3zM272.8 231c-2-1.7-2.7-3.8-3-5.8-.3-2 0-4 0-6 .6-4 1.6-8.2 3.2-13.7.6-1.8 1.4-4.8 4-10.8 1.4-2.8 3.8-7.5 6-11.3 2.3-4 4.3-7 4.3-7l1-1.7c1-1 2-2.5 3-4.2 1-1.6 2.4-3.4 3.7-5l3.6-5 3.8-4.7 3-3.8 4.4-5c2-2.2 3.6-4.2 5-6 1-1 1.6-2 2.3-3l2-2.7c2.6-3.7 5-7.3 7.5-11.8-4.4 2.7-8 5-11.6 7.8l-2.8 2.2-2.6 2.5c-1.8 1.7-3.7 3.7-5.7 6-1 1-2.6 2.7-4.5 5-1 1-2 2.4-3.2 4l-4 4.8c-1 1.4-2.3 3-3.6 5l-4 5.2c-1 1.7-2 3.3-2.8 4.3l-1.2 1.8s-2.2 3.4-4.5 7.4c-2.4 4-5 9-6.3 12-3 6.5-4 10-4.5 12-1.8 6-2.2 11.2-1.3 16 .4 2.5 1.2 5 2.5 7l.6.8.6.8c.3.5.8 1 1.3 1.3 1 .8 2.2 1.5 3.4 1.7z"/>
  <g>
    <path class="path" stroke="#fff" stroke-width="10" stroke-linejoin="" stroke-linecap="" stroke-miterlimit="20" stroke-dasharray="1000" stroke-dashoffset="0" fill="none" d="M193.5 96.5c-1.8 10.2-2.7 17-2 29 .3 2 .5 5.3 1 12.2l6 85 5.3 77.6L205 318c1 12 2.8 18.7 6 28.5 1.8-10.2 2.7-17 2-29l-1.3-17.8-5.5-77.7-6-85-.8-12c-1-12-2.7-18.7-6-28.5z"/>
  </g>
  <g>
    <path class="path" stroke="#fff" stroke-width="10" stroke-linejoin="" stroke-linecap="" stroke-miterlimit="20" stroke-dasharray="1000" stroke-dashoffset="0" fill="none" d="M21 140.5c-1.5 10.2-2.3 17-1.2 29l.7 7 .5 5 .7 6.2.7 6.8c2.2 18.5 5.2 40.3 9.4 61 2.2 10.3 4.6 20.4 7.5 29.6 3 9.3 6.3 17.6 10.2 24.4 2 3.4 4.2 6.3 6.5 8.8 2.3 2.4 4.8 4.2 7.2 5.4 1.2.6 2.3 1 3.3 1.2l2.6.5h4.5c1.4-.3 3.5-1 5.8-2 2.4-1.4 4.8-3.3 7-6 2-2.4 4-5.5 6-9 7.2-13.8 12-33.7 15.5-54.5 1.6-10.4 3-21 4.2-31.5l1.5-15.3.7-7.4.5-7L116 175c.7-12-.4-19-2.2-29-3 9.8-4.8 16.6-5.6 28.5L107 192c0 2.3-.3 4.6-.5 7l-.6 7.2c-.6 5-1 10-1.7 15.2-1 10.3-2.5 21-4.2 31-1.6 10.3-3.6 20.3-6 29.2-2.5 9-5.3 17-8.6 23-1.6 3.2-3.3 5.7-5 7.7-1.6 2-3.3 3.3-4.7 4-1.4.8-2.5 1-3.3 1.2h-1-.2H70c-.4 0-1 0-1.5-.2l-2-.8c-1.4-.7-3-2-5-3.8-1.6-1.8-3.5-4.3-5.2-7.3-3.5-6-6.7-13.8-9.5-22.7C44 274 41.6 264 39.5 254c-4.2-20.4-7-42-9.3-60.4l-1.4-13-.5-4.8-.7-7c-1.2-12-3-18.6-6.6-28.3z"/>
    <path class="path" stroke="#fff" stroke-width="10" stroke-linejoin="" stroke-linecap="" stroke-miterlimit="20" stroke-dasharray="1000" stroke-dashoffset="0" fill="none" d="M119 103.5c-2.5 10-4 16.7-4.5 28.7 0 2 0 5.3-.3 12.2-.3 12.2-.7 32.7-.8 50.2 0 17.5.2 32 .2 32l.2 8c0 5 .3 11.8.7 19.5.7 15.5 2.2 34.4 4.3 47.8 1.5 9.2 2.8 15 3.6 17.8 1.6 6 3.6 10.6 6.3 14.6 1.4 2 3 3.8 5 5.3 1.8 1.5 4.2 2.8 6.8 3-2.2-1.4-3.4-3.3-4.4-5l-2.2-6c-1.2-4-2.4-8.2-3.8-13.8-.7-2.8-2-8.2-3.4-17-2-13-3.6-31.7-4.3-47-.4-7.6-.6-14.5-.7-19.4 0-5-.2-8-.2-8s-.3-14.3-.2-31.7c0-17.4.5-38 .8-50l.3-12.2c.3-12-.8-19-3.3-29zM16 177.5C12.3 187 10.3 194 9.3 206l-1 12c-.6 9-1.4 23.7-2 36.3l-1 23-1 20-1.7 34.2-1.2 17.7c-.5 6-.6 10.6-.5 15V375c-.2.3-.2.6-.3 1 0 .4-.2 1-.7 1.5.7-.2 1-.7 1.5-1.2l.6-.8c.3-.3.5-.5.6-.8l1.6-3.2c1-2.2 1.7-4.3 2.3-6.5 1.3-4.4 2-9 2.7-15.2.2-3 .7-8.6 1.2-17.8l1.8-34.4.8-20 1-23 2.2-36 .8-12c1-12 .2-19-1-29z"/>
  </g>
</svg>
