<svg xmlns="http://www.w3.org/2000/svg" viewBox="0 0 640 377.5"><path fill="#202020" d="M21 140.5c-1.38 10.23-1.886 17.18-.37 29.103.214 1.613.54 4.034.94 7.037l.686 4.906 1.87 12.69c2.77 18.12 6.435 39.454 10.982 59.714 4.56 20.25 9.945 39.456 16.533 53.123 3.308 6.802 6.98 12.312 11.27 15.45 2.12 1.58 4.38 2.357 5.948 2.684.813.098 1.44.146 1.862.175.422.045.634-.02.635-.004l.634-.05c.413-.05 1.054-.052 1.816-.284 1.603-.305 3.712-1.292 5.77-2.908 4.146-3.277 7.662-8.904 10.727-15.82 6.126-13.89 10.788-33.288 14.59-53.697 1.892-10.21 3.548-20.68 4.99-30.874.722-5.098 1.386-10.126 2-15.02.3-2.446.596-4.858.885-7.228.268-2.31.53-4.58.79-6.798.893-7.896 1.533-14.383 1.84-17.624 1.102-11.972.35-18.904-1.398-29.076-3.22 9.8-5.15 16.417-6.367 28.308-.336 3.218-.988 9.664-1.882 17.508l-.784 6.753-.88 7.177c-.61 4.856-1.27 9.846-1.984 14.9-1.43 10.106-3.066 20.473-4.93 30.542-1.862 10.067-3.95 19.843-6.283 28.727-2.333 8.877-4.926 16.878-7.737 23.232-1.403 3.172-2.862 5.926-4.315 8.116-1.447 2.195-2.896 3.797-4.106 4.748l-.438.357-.417.255c-.267.166-.513.352-.742.42l-.62.28c-.186.04-.352.082-.5.125-.293.122-.516.074-.664.104l-.224.026c-.003.04-.3-.027-.873-.05-.576-.172-1.48-.39-2.728-1.302-1.242-.886-2.742-2.456-4.262-4.6-1.526-2.14-3.078-4.846-4.59-7.97-3.03-6.257-5.902-14.163-8.558-22.95-2.66-8.792-5.114-18.483-7.35-28.478-4.478-19.992-8.116-41.18-10.874-59.184-.653-4.424-1.278-8.648-1.865-12.61-.25-1.752-.48-3.387-.693-4.877l-.973-6.993c-1.626-11.84-3.788-18.39-7.36-28.067zM119 103.5c-2.367 10.045-3.556 16.884-3.365 28.88.042 2.032.073 5.34.255 12.212.18 5.98.42 14.003.682 22.677l.407 13.323c.194 4.486.39 8.96.575 13.248l1.407 31.31s.13 2.965.408 7.82c.27 4.854.667 11.603 1.176 19.17 1 15.137 2.55 33.556 4.155 46.693 1.1 9.166 2.023 14.842 2.532 17.806 1.047 5.992 2.365 10.65 4.213 14.922.93 2.13 1.99 4.17 3.345 6.155.68.99 1.436 1.97 2.348 2.87.453.45.956.878 1.52 1.23.553.355 1.192.644 1.843.683-.55-.34-.914-.828-1.203-1.324-.29-.497-.507-1.02-.685-1.552-.358-1.06-.586-2.134-.78-3.197-.38-2.13-.612-4.23-.87-6.388-.5-4.316-1.08-8.87-2.037-14.693-.463-2.88-1.35-8.41-2.425-17.444-1.568-12.945-3.125-31.234-4.134-46.293-.515-7.527-.918-14.246-1.195-19.08-.282-4.836-.416-7.79-.416-7.79l-1.362-31.22-.563-13.21c-.136-4.476-.27-8.965-.4-13.292l-.695-22.626c-.168-6.856-.25-10.155-.298-12.183-.315-11.972-1.82-18.728-4.437-28.71zM193.5 96.5c-1.786 10.164-2.656 17.04-1.88 29 .14 2.027.364 5.323.832 12.173l5.966 84.92 5.412 77.694 1.27 17.755c.897 11.954 2.716 18.642 5.9 28.457 1.788-10.164 2.657-17.04 1.88-29.003l-1.215-17.76-5.465-77.69-5.922-84.922c-.492-6.85-.73-10.144-.874-12.17-.9-11.95-2.72-18.64-5.904-28.455zM256 103.5c-.39.545-.486 1.21-.67 1.805-.16.61-.3 1.21-.43 1.8-.257 1.185-.478 2.336-.673 3.468-.39 2.266-.684 4.458-.89 6.707-.412 4.497-.47 9.22-.11 15.208.13 2.028.344 5.328.79 12.185l2.71 40.346 1.617 25.643 1.195 22.104c.625 12.396 1.225 27.48 1.44 38.22.196 9.12.168 14.743.154 17.676-.038 5.933.15 10.558.473 14.945.157 2.194.35 4.328.48 6.535.062 1.103.11 2.225.08 3.373-.057 1.143-.068 2.35-.667 3.484 1.1-.742 1.77-1.944 2.366-3.016.59-1.104 1.062-2.214 1.483-3.313.835-2.203 1.458-4.377 1.963-6.62 1-4.485 1.52-9.253 1.62-15.306.045-2.992.09-8.716-.1-17.923-.207-10.846-.823-26.007-1.468-38.447-.636-12.44-1.235-22.17-1.235-22.17l-1.58-25.693c-.943-14.058-2.05-30.566-2.71-40.366l-.832-12.163c-.42-5.97-1.062-10.622-1.958-15.01-.448-2.196-.96-4.325-1.523-6.522l-.867-3.366c-.14-.576-.28-1.16-.426-1.757-.106-.595-.32-1.21-.234-1.825z"/><path fill="#202020" d="M265.058 254c3.96 9.532 7.07 15.8 14.574 25.238 1.28 1.593 3.352 4.192 7.805 9.488.937 1.133 2.55 3.014 3.94 4.604l2.558 2.89s3.85 4.4 6.09 6.76c6.336 6.792 10.64 10.73 12.935 12.754 2.325 2.043 4.556 3.736 6.79 5.143 2.238 1.4 4.48 2.528 6.904 3.293 1.23.363 2.478.665 3.86.723 1.355.062 2.86-.073 4.246-.783 1.396-.697 2.38-1.984 2.8-3.254.43-1.286.484-2.574.44-3.855-.56 1.166-1.194 2.207-1.946 2.946-.766.74-1.598 1.042-2.34 1.03-1.49-.044-3.075-.93-4.687-2.014-3.224-2.254-6.573-5.224-10.894-9.064-2.127-1.915-6.2-5.655-12.366-12.273-2.16-2.31-5.99-6.57-5.99-6.57l-6.35-7.39c-4.392-5.21-6.45-7.77-7.73-9.328-7.505-9.253-12.677-13.777-20.64-20.337zM272.75 231c-2.033-1.65-2.646-3.818-2.94-5.804-.272-2.014-.158-3.986.06-5.99.49-4.022 1.485-8.237 3.088-13.657.62-1.82 1.426-4.848 4.18-10.877 1.26-2.81 3.666-7.45 5.898-11.32 2.25-3.865 4.28-6.972 4.28-6.973 0 0 .408-.657 1.118-1.714.72-1.05 1.718-2.512 2.838-4.15l3.708-5.134 3.596-4.74 3.826-4.812c1.155-1.435 2.224-2.682 3.146-3.8 1.837-2.24 3.258-3.836 4.212-4.948 1.92-2.256 3.625-4.28 5.157-6.21.763-.966 1.48-1.912 2.16-2.85.698-.92 1.362-1.833 2.002-2.748 2.535-3.685 4.795-7.32 7.42-11.772-4.388 2.692-8.055 5.02-11.586 7.847-.89.7-1.776 1.426-2.67 2.19-.88.78-1.768 1.596-2.673 2.463-1.818 1.727-3.702 3.665-5.69 5.953-.986 1.126-2.445 2.75-4.336 5.04-.948 1.144-2.044 2.417-3.232 3.89-1.18 1.478-2.49 3.122-3.937 4.937l-3.707 4.884-3.82 5.32-2.924 4.322c-.73 1.1-1.155 1.79-1.155 1.79s-2.132 3.22-4.51 7.27c-2.363 4.06-4.925 8.976-6.257 12.01-2.948 6.474-3.86 9.876-4.52 11.9-1.738 6.078-2.19 11.275-1.33 16.155.458 2.427 1.232 4.79 2.587 6.94l.52.793c.197.255.41.503.615.75.385.503.9.937 1.378 1.367 1.03.81 2.22 1.453 3.497 1.675zM384 140.5c-3.228 4.015-5.872 7.437-8.337 11.22-2.392 3.82-4.686 7.965-7.077 13.497l-2.796 6.547c-.604 1.394-1.24 2.934-1.9 4.594l-2.066 5.13c-.744 1.817-1.485 3.696-2.206 5.635-1.473 3.864-3.02 7.897-4.473 12.11-1.53 4.18-2.912 8.56-4.364 12.98-2.75 8.902-5.272 18.192-7.01 27.514-.21 1.167-.45 2.32-.636 3.488l-.5 3.5c-.38 2.313-.553 4.657-.77 6.96-.13 1.146-.175 2.305-.207 3.457l-.12 3.426c.03 1.146.062 2.282.093 3.407l.052 1.682c.042.56.11 1.122.165 1.68.318 4.438 1.34 8.78 2.888 12.742.208.492.415.98.62 1.468.196.487.41.966.69 1.42.527.918 1.03 1.828 1.57 2.698l1.856 2.43c.63.775 1.39 1.432 2.063 2.12.658.714 1.46 1.233 2.192 1.795l1.104.812c.37.254.77.444 1.146.663.768.41 1.5.858 2.244 1.186l2.2.87c.706.308 1.41.455 2.086.643l1.953.51 3.437.532c2.054.127 3.674.28 4.743.21l1.65-.03s2.295-.024 6.226-.578c3.934-.538 9.453-1.747 15.837-3.913 12.812-4.253 28.988-12.347 44.74-22.54 7.89-5.083 15.71-10.642 23.057-16.405 3.667-2.893 7.22-5.83 10.595-8.805 1.69-1.484 3.325-2.993 4.92-4.492l2.342-2.275 2.146-2.195c2.837-3.005 5.305-5.848 7.152-8.98.23-.406.452-.788.663-1.19l.573-1.357c.21-.485.272-.77.378-1.108.1-.326.193-.642.285-.946.388-1.206.606-2.3.832-3.145.723-3.177.99-6.21.69-9.108-.296-2.882-1.175-5.664-2.813-7.94-1.606-2.284-3.93-3.9-6.375-4.65-2.447-.76-5.017-.843-7.54-.265 2.482.665 4.486 1.84 5.974 3.174 1.497 1.345 2.414 2.87 2.928 4.5.528 1.63.683 3.427.602 5.49-.08 2.058-.43 4.385-1.064 7.042-.205.72-.382 1.62-.73 2.68l-.253.82c-.085.272-.18.63-.263.76-.084.182-.164.37-.238.57l-.425.736c-1.213 2.084-3.452 4.767-6.062 7.5-.66.673-1.327 1.355-2 2.044-.73.71-1.468 1.426-2.213 2.148-1.52 1.426-3.08 2.866-4.706 4.295-3.247 2.86-6.69 5.707-10.25 8.518-7.14 5.603-14.772 11.03-22.45 15.98-15.334 9.942-31.004 17.753-42.98 21.73-5.978 2.033-10.993 3.122-14.458 3.6-3.47.49-5.396.508-5.396.508l-1.388.026c-.92.067-2.213-.083-3.887-.17l-2.69-.42-1.46-.39c-.505-.14-1.05-.24-1.545-.475l-1.584-.62c-.533-.23-1.023-.56-1.564-.836-.262-.152-.55-.275-.802-.453l-.748-.564c-.497-.39-1.064-.718-1.5-1.227-.454-.487-.988-.91-1.423-1.458l-1.306-1.706-1.137-1.975c-.212-.32-.37-.687-.517-1.066l-.47-1.126c-1.187-3.07-2.077-6.62-2.344-10.53-.047-.485-.11-.968-.146-1.46l-.04-1.5c-.03-1.007-.058-2.022-.086-3.045l.115-3.13c.027-1.05.066-2.11.19-3.183.206-2.144.36-4.312.725-6.506l.473-3.303c.175-1.103.407-2.21.61-3.32 1.657-8.89 4.102-17.91 6.788-26.595 1.423-4.326 2.77-8.604 4.276-12.712 1.423-4.132 2.947-8.104 4.395-11.91.71-1.907 1.438-3.76 2.172-5.555l2.035-5.062c.648-1.64 1.272-3.16 1.866-4.54 1.166-2.77 2.105-5 2.73-6.488 2.31-5.494 3.94-9.883 5.124-14.213 1.262-4.304 2.153-8.51 3.126-13.585z"/><path fill="#202020" d="M335 223c10.085-2.168 16.808-3.95 27.562-9.295l10.916-5.507c7.807-3.976 20.903-10.786 31.95-16.812 11.054-6.013 20.062-11.223 20.062-11.223l4.976-2.875c3.08-1.808 7.357-4.322 12.104-7.25 9.517-5.804 20.865-13.344 28.586-19.454 7.388-5.782 11.548-10.174 13.602-12.696 2.065-2.535 3.762-5.178 4.597-8.413.398-1.603.523-3.47-.017-5.285-.52-1.82-1.71-3.332-2.963-4.257-1.263-.948-2.567-1.455-3.818-1.784-1.256-.324-2.48-.46-3.698-.5-2.432-.06-4.846.235-7.357.85 2.493.628 4.687 1.442 6.61 2.37 1.892.917 3.604 2.07 4.353 3.245.374.583.457 1.052.436 1.505-.02.454-.154 1.04-.48 1.798-.642 1.512-1.927 3.44-3.678 5.502-1.704 2.044-5.38 5.966-12.438 11.487-7.363 5.816-18.473 13.226-27.846 18.96-4.67 2.89-8.896 5.384-11.938 7.178l-4.92 2.855s-8.93 5.14-19.917 11.096c-10.98 5.97-24.017 12.737-31.777 16.717l-10.85 5.523c-10.66 5.432-16.16 9.617-24.058 16.264zM340.5 118.5c4.84-1.902 8.685-3.615 12.788-5.387 2.038-.902 4.017-1.978 6.222-3.072 2.195-1.104 4.51-2.373 7.06-3.874 1.374-.822 3.512-1.948 6.12-3.404l4.28-2.364 9.157-4.755c13.11-6.664 28.935-13.898 44.28-20.373 15.337-6.492 30.173-12.264 41.153-16.444 10.994-4.152 18.13-6.725 18.13-6.726s16.97-6.212 38.848-13.6c21.864-7.424 48.67-15.903 67.86-21.715l17.018-5.114C624.883 8.246 631.02 5.078 640 0c-10.317.275-17.25.867-28.788 4.19-2.85.827-8.303 2.428-17.092 5.08-19.26 5.818-46.147 14.337-68.093 21.808-21.957 7.43-39.005 13.69-39.005 13.692s-7.172 2.578-18.23 6.743c-11.046 4.195-25.976 9.99-41.443 16.528-15.475 6.52-31.47 13.826-44.78 20.6l-9.308 4.84-4.363 2.423c-2.66 1.495-4.83 2.652-6.233 3.51-2.6 1.565-4.876 3.033-6.94 4.466-2.07 1.418-3.847 2.963-5.567 4.44-3.466 2.922-6.327 6.292-9.66 10.18zM16 177.5c-3.738 9.623-5.73 16.365-6.75 28.352-.164 2.032-.434 5.34-.897 12.21-.612 8.812-1.44 23.648-2.042 36.276l-1.06 23.05-.918 19.853c-.516 11.133-1.185 24.667-1.76 34.3-.54 9.12-.97 14.74-1.196 17.67C.918 355.144.8 359.786.87 364.204l.132 6.574c.018 1.112.004 2.23-.063 3.382l-.075.865-.133.865c-.153.54-.248 1.174-.73 1.61.66-.17 1.107-.733 1.547-1.215.19-.265.38-.525.57-.785l.496-.804c.623-1.078 1.157-2.164 1.62-3.24.937-2.154 1.672-4.282 2.308-6.483 1.25-4.404 2.082-9.11 2.608-15.125.258-2.974.71-8.665 1.262-17.842.59-9.69 1.248-23.263 1.748-34.405l.884-19.86 1.098-23.018c.618-12.603 1.453-27.382 2.037-36.14.48-6.825.71-10.11.85-12.128.89-11.906.177-18.71-1.03-28.954z"/></svg>